<svg version="1.2" xmlns="http://www.w3.org/2000/svg" viewBox="0 0 476 436" width="476" height="436"><style>.a{fill:#fff;stroke:#fff;stroke-width:0}.b{fill:#fff;stroke:#fff}</style><path class="a" d="m201.1 287.5c-5.5-1.3-34.4-2.3-47.9-25.8-14.3-25-12.5-50.4 3.5-72.7 4-5.6 13.4-12.2 20-16.1 19-8.6 33.4-13.1 50.7-13 3.3 0.1 6.5-0.2 10.3 0.2 1.1 0.2 5.7 0.7 6.4 0.8 23 5.3 39.1 19.8 51.7 36.3 5.1 6.6 8.6 13.3 11.6 18.6 5.2 8.8 9.9 20.4 10.8 33.2 0.8 13.7-2.6 28.7-11.6 41.7-8.7 12.6-21 31.8-43.7 47.5-13.6 9.5-30.8 18.1-53.7 22.1-65.3 11.3-103.8-49.3-103.8-49.3 0 0-35.9-40.6-27.2-98.8 0.9-6.1 1.6-13.7 3.6-20.2 6.6-21.1 15.2-34.8 23.4-46.8 15.1-22.1 29.1-32.7 33.7-35.1 3.2-1.7 10.7-6.2 20.1-10.3 10.8-4.7 24.1-9.1 34.5-11.7 11.4-2.8 20.9-5.3 28.9-5.9 7.6-0.6 13.9 0.5 20.4 1 13.2 0.8 35.7 4.5 45.4 9.9 10.1 5.6 23.8 12.3 40.1 28.3 9.6 9.4 21.1 24 34.4 40.2 19.9 24.3 32.4 52.9 35.3 73.5 0.3 2.2 5 27.9-6.1 60.2-11.1 32.2-32.5 58.5-39 66.1-6.4 7.6-12.9 23.6-58.1 46.4-39 19.7-73.8 24.9-84.3 25.9-10.6 1.1-37.5 5.9-77-8.5-39.4-14.4-54.2-29.3-64.6-39.3-10.3-10-34-37-34-37 0 0 0.8-0.6-9.3-15.6-4.6-6.7-9.4-16.1-12.9-26.1-4.1-12-6.6-24.8-8.4-33.5-4.5-20.9-5.2-55.4-3.4-68 1.8-12.7 2.9-16.9 6.9-32.7 3.9-15.7 2.3-5.5 12.4-29.4 10.1-23.9 28.5-46.9 36.7-56.6 8.2-9.8 20.1-26 47.8-43 27.7-17 46.9-22.6 63.9-29.1 20-7.8 62.3-14.4 62.3-14.4 0 0 25.9-1.5 47.8 0.6 11.5 0.7 24.7 7 38 12.9 18.3 8.3 38.3 20.3 41.1 22 4.9 2.9 28.1 18 34.8 24.7 6.7 6.6 27.7 33.1 29.8 36 2.2 3 16.1 18.7 1.2 27.9-16.2 10-27-6.3-30.7-10.7-3.6-4.3-34.9-36.2-42.6-41.2-7.7-5.1-49.5-27.3-66-33.2-16.4-5.8-44.5-9.7-70.3-4.8-24.8 4.6-64.3 17.2-88.1 31-20.8 12.2-27.1 17.3-34.8 25.2-15.9 16-27.5 34.4-35.2 47.8-7.8 13.3-18.9 39-21.8 54.1-3.5 17.9-4.1 58 1.2 77.2 9.8 35.8 30.4 64.4 30.4 64.4 0 0 39.8 56.5 95.5 67 21.9 4.1 37.8 3.9 77.9-4.9 5.6-1.3 22.1-8.5 42.1-18.9 20-10.3 25.7-14.2 34.9-24.1 9.3-10 12.5-12.6 18.8-21.6 6.3-9.1 18.7-21.9 26.4-46.1 4.3-13.5 6.3-36.8 1.8-56.6-2.7-11.6-6.1-13.9-13.4-27.1-2.3-4-4.6-7.6-6.8-10.9-5-7.6-10.2-14.3-19.2-24.6-12.9-14.8-9.3-11-19-19.7-6.6-6-12.9-10.5-16.9-12.9-4-2.3-7.4-3.6-11.7-6-29.9-16.6-71.5-16-102.4-1-10.3 5-22.3 12.6-32.8 23.2-7.1 7.1-13.4 16-18.8 25-2.2 3.7-4.6 6.9-6.4 10.9-1.8 4.1-3.2 5.8-4.5 10.1-1.1 4-1.3 11.6-2 15.3-8 44.9 13.2 71.3 13.2 71.3 0 0 34.1 70.4 111.2 39.5 19-8.8 46.1-38.1 51.6-58.3 3.4-12.4-3.9-27.6-11.1-40.8-5.7-10.4-20.6-26.3-32.5-29.2-25.7-6.4-40.5 0.7-48.4 4.3-10.5 4.7-23.3 15.4-17.3 40.7 2 8.8 16.6 21.7 29.2 17.9 10.9-3.1 20.4-10.6 25.3-12.4 4.4-1.6 9.9-6.2 16.7 6.7 10.8 23.3-45.2 36.5-46 36.3z"/><circle class="b" cx="447.5" cy="181.5" r="27.5"/></svg>